# xmcd
#
# Track frame offsets:
#	150
#	11350
#	25265
#	35867
#	45977
#	58680
#	68937
#	78905
#	88717
#	98292
#	108865
#	120402
#	132972
#	145620
#	155352
#	167737
#
# Disc length: 2392 seconds
#
# Revision: 7
# Processed by: cddbd v1.5.2PL0 Copyright (c) Steve Scherf et al.
# Submitted via: EZCDAudioConverter 3.0.8.1
#
DISCID=bd095610
DTITLE=Chuck Berry - Blues
DYEAR=2003
DGENRE=Blues
TTITLE0=House Of Blue Lights
TTITLE1=Wee Wee Hours
TTITLE2=Deep Feeling (Instrumental)
TTITLE3=I Just Want To Make Love To You
TTITLE4=How You've Changed
TTITLE5=Down The Road Apiece
TTITLE6=Worried Life Blues
TTITLE7=Confessin' The Blues
TTITLE8=Still Got The Blues
TTITLE9=Driftin' Blues
TTITLE10=Run Around
TTITLE11=Route 66
TTITLE12=Sweet Sixteen
TTITLE13=All Aboard
TTITLE14=The Things That I Used To Do
TTITLE15=St. Louis Blues
EXTD=
EXTT0=
EXTT1=
EXTT2=
EXTT3=
EXTT4=
EXTT5=
EXTT6=
EXTT7=
EXTT8=
EXTT9=
EXTT10=
EXTT11=
EXTT12=
EXTT13=
EXTT14=
EXTT15=
PLAYORDER=
